<svg xmlns="http://www.w3.org/2000/svg" viewBox="0 0 600 500" fill="none">
  <path d="M 361.3 452.8 L 353.0 459.0 L 345.1 455.0 L 344.8 444.0 L 349.5 438.2 L 360.1 434.6 L 365.7 434.9 L 367.8 439.8 L 363.6 445.4 L 361.3 452.8 L 361.3 452.8 Z M 528.9 54.4 L 545.8 58.5 L 557.2 67.6 L 561.2 79.6 L 575.9 79.6 L 584.3 74.6 L 600.3 70.8 L 595.2 82.3 L 591.4 87.0 L 588.1 101.1 L 581.6 113.5 L 569.8 111.3 L 561.5 115.8 L 564.1 126.8 L 562.7 141.9 L 557.7 142.3 L 557.8 148.8 L 551.6 141.2 L 547.7 148.4 L 532.8 153.9 L 534.3 160.7 L 525.9 160.2 L 521.3 156.2 L 514.7 165.3 L 504.0 172.2 L 496.1 180.4 L 482.6 184.1 L 475.5 190.1 L 465.0 193.6 L 470.2 187.7 L 468.2 182.7 L 475.8 174.1 L 470.7 167.4 L 462.3 171.9 L 451.4 180.8 L 445.4 189.1 L 435.9 189.7 L 431.0 195.7 L 436.1 204.3 L 444.0 206.4 L 444.3 212.2 L 452.0 215.9 L 462.8 206.8 L 471.4 211.8 L 477.7 212.1 L 479.2 218.8 L 465.5 222.4 L 461.0 229.3 L 451.6 235.8 L 446.6 244.7 L 457.0 251.8 L 460.8 264.4 L 466.7 276.1 L 473.3 286.0 L 473.1 295.5 L 467.1 299.0 L 469.4 305.9 L 475.1 309.8 L 473.6 320.3 L 471.1 330.4 L 465.7 331.6 L 458.7 345.5 L 450.8 362.3 L 441.8 377.6 L 428.5 389.4 L 415.1 400.2 L 404.2 401.7 L 398.3 407.4 L 394.9 403.2 L 389.4 409.6 L 375.9 416.0 L 365.7 418.0 L 362.4 431.5 L 357.0 432.3 L 354.5 423.0 L 356.8 418.0 L 343.8 413.9 L 339.2 416.0 L 329.5 412.7 L 324.8 407.5 L 326.4 400.1 L 317.5 397.7 L 312.9 392.9 L 304.6 399.8 L 295.2 401.2 L 287.5 401.2 L 282.3 404.3 L 277.3 406.2 L 278.7 420.8 L 273.6 420.5 L 272.7 417.5 L 272.4 412.2 L 265.3 415.9 L 261.1 413.6 L 253.9 408.7 L 256.8 398.1 L 250.6 395.6 L 248.3 383.8 L 238.1 385.9 L 239.3 370.7 L 248.4 360.0 L 248.8 349.4 L 248.5 339.6 L 244.3 336.6 L 241.1 329.0 L 235.4 330.0 L 225.0 328.1 L 228.3 322.7 L 223.7 314.7 L 216.8 320.1 L 208.7 317.0 L 197.5 325.1 L 188.7 334.7 L 180.9 336.3 L 176.7 332.8 L 171.6 332.5 L 164.7 329.5 L 159.4 332.8 L 153.0 342.3 L 152.2 332.2 L 146.3 334.9 L 135.0 333.7 L 124.1 330.7 L 116.2 325.1 L 108.7 322.6 L 105.5 316.4 L 100.0 314.6 L 90.3 306.2 L 82.5 302.3 L 78.5 305.3 L 65.0 296.4 L 55.5 288.3 L 52.8 274.1 L 59.8 275.8 L 60.1 269.3 L 56.2 262.7 L 57.2 252.3 L 46.8 237.3 L 30.9 232.1 L 28.0 222.2 L 20.9 216.2 L 19.2 212.6 L 17.7 205.3 L 18.0 200.3 L 12.2 197.4 L 9.0 198.6 L 6.5 186.8 L 9.3 183.8 L 8.0 180.8 L 17.2 174.8 L 23.9 172.3 L 34.1 174.0 L 37.8 165.8 L 50.2 164.3 L 53.6 159.2 L 68.9 152.3 L 70.3 149.4 L 69.5 142.1 L 76.1 138.7 L 67.4 116.4 L 86.6 111.3 L 91.5 108.5 L 98.5 85.5 L 117.7 89.7 L 123.1 83.9 L 123.6 71.1 L 131.6 69.9 L 139.0 61.3 L 142.8 60.3 L 145.3 69.2 L 153.4 76.0 L 167.2 80.9 L 173.9 91.2 L 170.2 106.2 L 173.7 111.7 L 185.2 113.9 L 198.2 115.7 L 209.9 123.7 L 215.9 125.1 L 220.3 136.9 L 226.0 144.5 L 236.6 144.2 L 256.6 147.1 L 269.5 145.3 L 279.0 147.2 L 293.3 155.0 L 305.1 155.0 L 309.3 159.0 L 320.6 152.1 L 336.2 147.7 L 350.7 147.2 L 362.1 142.7 L 369.0 135.8 L 375.8 131.5 L 374.2 127.3 L 371.1 122.3 L 376.2 114.1 L 381.6 115.2 L 391.6 117.8 L 401.2 111.0 L 416.0 106.1 L 423.1 97.6 L 429.9 93.9 L 443.9 92.2 L 451.6 93.7 L 452.6 89.1 L 443.9 80.2 L 436.1 76.1 L 428.7 80.8 L 419.1 78.8 L 413.6 80.4 L 411.1 75.2 L 418.0 62.4 L 422.7 52.7 L 434.3 57.6 L 448.0 49.5 L 447.9 43.8 L 456.6 30.2 L 462.0 26.1 L 461.9 19.0 L 456.6 16.0 L 464.5 9.6 L 476.6 7.3 L 489.4 6.9 L 503.9 10.8 L 512.4 15.5 L 518.4 28.4 L 522.0 33.9 L 525.4 41.8 L 528.9 54.4 L 528.9 54.4 Z" fill="currentColor" fill-opacity="0.08" stroke="currentColor" stroke-width="0.8" stroke-opacity="0.3"/>
</svg>